HIERARCHY
ROOT hip
{
	OFFSET 0.000000 0.000000 0.000000
	CHANNELS 6 Xposition Yposition Zposition Zrotation Yrotation Xrotation 
	JOINT lhipjoint
	{
		OFFSET 0.000000 0.000000 0.000000
		CHANNELS 3 Zrotation Yrotation Xrotation
		JOINT lfemur
		{
			OFFSET 1.363060 -1.794630 0.839290
			CHANNELS 3 Zrotation Yrotation Xrotation
			JOINT ltibia
			{
				OFFSET 2.448110 -6.726130 0.000000
				CHANNELS 3 Zrotation Yrotation Xrotation
				JOINT lfoot
				{
					OFFSET 2.562200 -7.039590 0.000000
					CHANNELS 3 Zrotation Yrotation Xrotation
					JOINT ltoes
					{
						OFFSET 0.157640 -0.433110 2.322550
						CHANNELS 3 Zrotation Yrotation Xrotation
						End Site
						{
							OFFSET 0.000000 0.000000 0.000000
						}
					}
				}
			}
		}
	}
	JOINT rhipjoint
	{
		OFFSET 0.000000 0.000000 0.000000
		CHANNELS 3 Zrotation Yrotation Xrotation
		JOINT rfemur
		{
			OFFSET -1.305520 -1.794630 0.839290
			CHANNELS 3 Zrotation Yrotation Xrotation
			JOINT rtibia
			{
				OFFSET -2.542530 -6.985550 0.000000
				CHANNELS 3 Zrotation Yrotation Xrotation
				JOINT rfoot
				{
					OFFSET -2.568260 -7.056230 0.000000
					CHANNELS 3 Zrotation Yrotation Xrotation
					JOINT rtoes
					{
						OFFSET -0.164730 -0.452590 2.363150
						CHANNELS 3 Zrotation Yrotation Xrotation
						End Site
						{
							OFFSET 0.000000 0.000000 0.000000
						}
					}
				}
			}
		}
	}
	JOINT lowerback
	{
		OFFSET 0.000000 0.000000 0.000000
		CHANNELS 3 Zrotation Yrotation Xrotation
		JOINT upperback
		{
			OFFSET 0.028270 2.035590 -0.193380
			CHANNELS 3 Zrotation Yrotation Xrotation
			JOINT thorax
			{
				OFFSET 0.056720 2.048850 -0.042750
				CHANNELS 3 Zrotation Yrotation Xrotation
				JOINT lowerneck
				{
					OFFSET 0.000000 0.000000 0.000000
					CHANNELS 3 Zrotation Yrotation Xrotation
					JOINT upperneck
					{
						OFFSET -0.054170 1.746240 0.172020
						CHANNELS 3 Zrotation Yrotation Xrotation
						JOINT head
						{
							OFFSET 0.104070 1.761360 -0.123970
							CHANNELS 3 Zrotation Yrotation Xrotation
							End Site
							{
								OFFSET 0.000000 0.000000 0.000000
							}
						}
					}
				}
				JOINT lclavicle
				{
					OFFSET 0.000000 0.000000 0.000000
					CHANNELS 3 Zrotation Yrotation Xrotation
					JOINT lhumerus
					{
						OFFSET 3.362410 1.200890 -0.311210
						CHANNELS 3 Zrotation Yrotation Xrotation
						JOINT lradius
						{
							OFFSET 4.983000 -0.000000 -0.000000
							CHANNELS 3 Zrotation Yrotation Xrotation
							JOINT lwrist
							{
								OFFSET 3.483560 -0.000000 -0.000000
								CHANNELS 3 Zrotation Yrotation Xrotation
								JOINT lhand
								{
									OFFSET 0.000000 0.000000 0.000000
									CHANNELS 3 Zrotation Yrotation Xrotation
									JOINT lfingers
									{
										OFFSET 0.715260 -0.000000 -0.000000
										CHANNELS 3 Zrotation Yrotation Xrotation
										End Site
										{
											OFFSET 0.000000 0.000000 0.000000
										}
									}
								}
								JOINT lthumb
								{
									OFFSET 0.000000 0.000000 0.000000
									CHANNELS 3 Zrotation Yrotation Xrotation
									End Site
									{
										OFFSET 0.000000 0.000000 0.000000
									}
								}
							}
						}
					}
				}
				JOINT rclavicle
				{
					OFFSET 0.000000 0.000000 0.000000
					CHANNELS 3 Zrotation Yrotation Xrotation
					JOINT rhumerus
					{
						OFFSET -3.136600 1.374050 -0.404650
						CHANNELS 3 Zrotation Yrotation Xrotation
						JOINT rradius
						{
							OFFSET -5.241900 -0.000000 -0.000000
							CHANNELS 3 Zrotation Yrotation Xrotation
							JOINT rwrist
							{
								OFFSET -3.444170 -0.000000 -0.000000
								CHANNELS 3 Zrotation Yrotation Xrotation
								JOINT rhand
								{
									OFFSET 0.000000 0.000000 0.000000
									CHANNELS 3 Zrotation Yrotation Xrotation
									JOINT rfingers
									{
										OFFSET -0.622530 -0.000000 -0.000000
										CHANNELS 3 Zrotation Yrotation Xrotation
										End Site
										{
											OFFSET 0.000000 0.000000 0.000000
										}
									}
								}
								JOINT rthumb
								{
									OFFSET 0.000000 0.000000 0.000000
									CHANNELS 3 Zrotation Yrotation Xrotation
									End Site
									{
										OFFSET 0.000000 0.000000 0.000000
									}
								}
							}
						}
					}
				}
			}
		}
	}
}
MOTION
Frames: 11
Frame Time: 0.008333
4.008624 17.310602 2.650425 -169.343172 2.881327 175.507468 7.360632 2.319465 -0.974509 -7.190130 5.897806 -18.502548 5.481121 14.135256 44.764950 5.839068 -17.856427 8.149154 1.758700 -8.344200 -23.764600 -11.846983 -3.897731 -3.519293 29.601353 -18.762910 -15.825575 -7.947619 -15.385718 51.800859 -2.931602 6.434212 15.002798 -4.197500 -12.418700 37.229700 -1.008079 1.738922 5.006630 0.788436 2.035473 -2.307342 0.893971 1.445623 -0.547605 3.348690 -19.733512 3.105612 2.704757 -25.257195 7.325506 1.330800 -12.241500 -4.774100 -1.095029 -2.095080 3.122990 -54.459822 -8.921101 57.531142 137.068146 -41.507955 -97.176970 1.054360 3.240225 -7.464997 28.869628 -27.088201 -15.050000 -7.125000 0.000000 0.000000 -2.228800 -4.194100 2.387500 2.850591 4.347629 4.226085 73.483192 18.571549 77.101213 -133.269543 40.891499 -90.895699 1.865747 -4.226282 21.116861 -25.699914 1.881830 -3.000500 7.125000 0.000000 0.000000 -1.747700 -23.791600 -0.894500 
4.055294 17.304632 2.650823 -169.054716 2.561931 175.562708 7.323686 2.322236 -0.944663 -6.665688 5.955488 -18.905905 5.527577 14.186014 44.968532 5.862955 -18.081092 8.198684 1.816500 -8.472900 -24.159900 -11.880881 -3.898370 -3.559898 29.535770 -18.298702 -15.310632 -7.717576 -15.164394 50.833626 -2.845285 6.035787 14.940605 -4.171000 -12.384500 37.106200 -0.902802 1.639065 4.958995 0.815941 1.905548 -2.314466 1.010626 1.376759 -0.557305 3.351986 -19.702481 3.131959 2.688153 -25.220757 7.266465 1.315200 -12.216100 -4.856400 -1.099342 -2.107598 3.124886 -54.224270 -8.675577 57.352965 137.153196 -41.487997 -97.294386 1.082294 3.215542 -7.380191 28.716885 -27.117668 -14.942500 -7.125000 0.000000 0.000000 -2.326900 -4.147800 2.491100 2.900922 4.367129 4.233433 73.224843 18.435696 77.150495 -133.344404 40.903107 -90.983658 1.854125 -4.200344 20.954482 -25.585868 2.043324 -3.061200 7.125000 0.000000 0.000000 -1.632400 -23.636900 -0.841300 
4.102660 17.292890 2.653111 -168.782774 2.268871 175.605509 7.282236 2.325977 -0.914085 -6.137883 6.111860 -19.375219 5.596054 14.257300 45.252685 5.897526 -18.387279 8.195392 1.908000 -8.671700 -24.773500 -11.912909 -3.896729 -3.601068 29.433715 -17.784552 -14.760626 -7.507416 -14.949397 49.922665 -2.754658 5.639984 14.806534 -4.140300 -12.344800 36.962900 -0.804140 1.530026 4.922945 0.846103 1.763547 -2.323355 1.184062 1.305710 -0.609233 3.212523 -19.653109 3.252936 2.705774 -25.166010 7.186860 1.360000 -12.179100 -4.931700 -1.113691 -2.132137 3.136746 -54.043719 -8.396550 57.172681 137.241328 -41.464075 -97.413244 1.106585 3.196725 -7.353117 28.541396 -27.140180 -14.820400 -7.125000 0.000000 0.000000 -2.437500 -4.093400 2.607600 2.936360 4.390628 4.252156 72.912588 18.246448 77.193426 -133.452883 40.905085 -91.113109 1.840440 -4.169333 20.822727 -25.466599 2.222411 -3.125900 7.125000 0.000000 0.000000 -1.511100 -23.470700 -0.784500 
4.149231 17.276172 2.655997 -168.477385 2.007703 175.633322 7.236213 2.326834 -0.883524 -5.552416 6.290202 -19.868485 5.681354 14.345211 45.613677 5.932915 -18.735969 8.258348 1.930900 -8.720700 -24.925500 -11.942311 -3.890531 -3.650158 29.327738 -17.301775 -14.165369 -7.308445 -14.738506 49.051980 -2.676316 5.320152 14.656731 -4.110900 -12.306600 36.825300 -0.628985 1.422517 4.876297 0.875516 1.626682 -2.328137 1.316152 1.236034 -0.636509 3.074496 -19.618869 3.386501 2.699624 -25.121049 7.105877 1.404900 -12.144100 -5.018000 -1.128821 -2.139284 3.149822 -53.876727 -8.156346 56.980697 137.331751 -41.450343 -97.522854 1.127806 3.179145 -7.350754 28.287611 -27.101813 -14.625400 -7.125000 0.000000 0.000000 -2.580200 -3.951800 2.754600 2.968661 4.404497 4.275218 72.603926 18.090819 77.184155 -133.630745 40.875758 -91.319921 1.829309 -4.133835 20.627057 -25.252200 2.376400 -3.161300 7.125000 0.000000 0.000000 -1.319300 -23.343500 -0.688700 
4.196398 17.254280 2.659779 -168.207314 1.780565 175.632259 7.187003 2.326560 -0.854111 -4.987142 6.560931 -20.391152 5.785922 14.450214 46.051486 5.971360 -19.137630 8.336012 1.952900 -8.767300 -25.070100 -11.963300 -3.875845 -3.706028 29.136754 -16.843578 -13.545172 -7.125399 -14.533435 48.236906 -2.612663 5.075819 14.531490 -4.078100 -12.263600 36.670800 -0.470308 1.296534 4.845263 0.905144 1.468177 -2.330386 1.464821 1.156495 -0.678922 2.848004 -19.571593 3.608922 2.722829 -25.058933 6.979179 1.504100 -12.094700 -5.132600 -1.157846 -2.139885 3.174053 -53.695458 -7.891293 56.743982 137.426580 -41.442205 -97.645532 1.149723 3.160425 -7.411939 28.020685 -27.093383 -14.432300 -7.125000 0.000000 0.000000 -2.737700 -3.835700 2.917900 2.990970 4.412244 4.311909 72.272187 17.970790 77.198142 -133.922764 40.792642 -91.656183 1.824285 -4.088157 20.361256 -25.001810 2.502865 -3.171100 7.125000 0.000000 0.000000 -1.101700 -23.259900 -0.577200 
4.243466 17.228010 2.664356 -167.937168 1.598647 175.632116 7.136423 2.325216 -0.823112 -4.409705 6.841896 -20.931518 5.910059 14.569608 46.555185 6.008349 -19.542033 8.392479 1.944800 -8.750100 -25.016800 -11.977552 -3.858842 -3.760662 28.917882 -16.430565 -12.948590 -6.955793 -14.336409 47.471818 -2.561164 4.892929 14.419394 -4.042500 -12.216700 36.502900 -0.272624 1.187505 4.806583 0.930397 1.330139 -2.334879 1.553865 1.088035 -0.748255 2.660881 -19.537080 3.875943 2.742551 -25.001339 6.842628 1.604800 -12.044400 -5.273200 -1.185107 -2.139925 3.197846 -53.510981 -7.606823 56.536333 137.553435 -41.423869 -97.787180 1.168462 3.138938 -7.457589 27.698968 -27.022612 -14.181900 -7.125000 0.000000 0.000000 -2.912400 -3.635400 3.095100 3.011795 4.428744 4.351849 71.938926 17.876446 77.109690 -134.223437 40.693456 -92.014885 1.822348 -4.041529 20.119550 -24.731445 2.551097 -3.135600 7.125000 0.000000 0.000000 -0.876800 -23.268500 -0.459200 
4.290932 17.196465 2.669929 -167.675577 1.465253 175.599044 7.079751 2.322559 -0.792799 -3.810268 7.161767 -21.462774 6.052956 14.702212 47.125296 6.047413 -19.996715 8.443590 1.929200 -8.717000 -24.914000 -11.988484 -3.834529 -3.821704 28.659176 -16.029527 -12.311259 -6.798244 -14.145530 46.757595 -2.531095 4.799775 14.380858 -4.052000 -12.229300 36.548100 -0.080512 1.059548 4.796264 0.960586 1.172211 -2.337285 1.689960 1.009017 -0.814577 2.436283 -19.471833 4.153034 2.760949 -24.912803 6.695376 1.706100 -11.975100 -5.424000 -1.210482 -2.135036 3.223131 -53.352639 -7.318141 56.278185 137.714533 -41.383609 -97.963491 1.185343 3.119687 -7.555813 27.292268 -26.922049 -13.869300 -7.125000 0.000000 0.000000 -3.131300 -3.381500 3.315400 3.042786 4.434906 4.396624 71.539629 17.881359 77.039800 -134.501322 40.605903 -92.365025 1.828377 -3.986156 19.808222 -24.512339 2.498836 -3.052700 7.125000 0.000000 0.000000 -0.695400 -23.391500 -0.362200 
4.337502 17.161040 2.676098 -167.430684 1.375497 175.546149 7.022130 2.319229 -0.763773 -3.223343 7.470410 -21.975065 6.221399 14.847393 47.751434 6.088575 -20.428347 8.321758 1.987900 -8.840800 -25.298600 -11.992309 -3.804459 -3.886684 28.337844 -15.696561 -11.686312 -6.652053 -13.961816 46.092158 -2.522691 4.805113 14.397843 -3.983700 -12.138700 36.224500 0.130607 0.931181 4.803717 0.990198 1.017213 -2.338217 1.807731 0.929306 -0.863328 2.251663 -19.393558 4.382281 2.760574 -24.810296 6.551604 1.778000 -11.898200 -5.574700 -1.231533 -2.122088 3.243277 -53.215816 -7.024516 55.993453 137.896190 -41.332404 -98.162394 1.200706 3.100322 -7.611480 26.883219 -26.804893 -13.554300 -7.125000 0.000000 0.000000 -3.347900 -3.112800 3.530600 3.085264 4.431418 4.438927 71.082012 18.017186 76.926616 -134.729454 40.538412 -92.671898 1.835725 -3.929016 19.422369 -24.306695 2.410542 -2.955500 7.125000 0.000000 0.000000 -0.523000 -23.550100 -0.270500 
4.383575 17.120440 2.683462 -167.205965 1.338760 175.498460 6.963317 2.316117 -0.732401 -2.652877 7.772283 -22.500783 6.411943 15.005268 48.435321 6.127669 -20.816845 8.118842 2.056500 -8.982800 -25.741500 -11.991524 -3.771910 -3.950278 27.978156 -15.373182 -11.084390 -6.518337 -13.785346 45.468799 -2.514847 4.813771 14.413676 -3.902900 -12.030100 35.838600 0.320678 0.803139 4.808818 1.020152 0.862996 -2.340886 1.932475 0.848211 -0.900773 2.112058 -19.296102 4.543711 2.751855 -24.691376 6.419410 1.815700 -11.815600 -5.712700 -1.250312 -2.108878 3.255409 -53.053802 -6.700547 55.666308 138.115958 -41.259063 -98.404262 1.213814 3.077784 -7.681785 26.441004 -26.642663 -13.204600 -7.125000 0.000000 0.000000 -3.575600 -2.785500 3.752300 3.141864 4.419775 4.473580 70.585226 18.298425 76.759606 -134.882464 40.505672 -92.909900 1.842570 -3.871043 18.945299 -24.087838 2.308714 -2.852800 7.125000 0.000000 0.000000 -0.337100 -23.719400 -0.173000 
4.426861 17.076656 2.691721 -167.017991 1.361149 175.428653 6.905886 2.311485 -0.701844 -2.121235 8.029381 -22.967233 6.624208 15.170413 49.163986 6.163638 -21.113346 7.801408 2.148000 -9.167800 -26.321500 -11.982352 -3.732851 -4.014837 27.523165 -15.045940 -10.487289 -6.399226 -13.615761 44.893015 -2.508622 4.815527 14.484106 -3.876500 -11.994200 35.711300 0.492047 0.669740 4.849929 1.049557 0.704572 -2.344202 2.057777 0.763827 -0.935369 2.001020 -19.165202 4.643583 2.734030 -24.536971 6.307064 1.820500 -11.719500 -5.827100 -1.266387 -2.099016 3.261719 -52.926966 -6.325240 55.300358 138.353409 -41.174690 -98.670532 1.228960 3.054935 -7.660810 26.003956 -26.484859 -12.866200 -7.125000 0.000000 0.000000 -3.801500 -2.469200 3.970300 3.206661 4.401597 4.502154 70.023612 18.704681 76.521602 -134.970432 40.504126 -93.087284 1.844875 -3.813495 18.412871 -23.847511 2.234499 -2.764400 7.125000 0.000000 0.000000 -0.128500 -23.854100 -0.065600 
4.469252 17.027897 2.700776 -166.867325 1.451177 175.331624 6.849056 2.306661 -0.671588 -1.625252 8.281908 -23.392226 6.860964 15.342119 49.937776 6.200822 -21.320747 7.323341 2.283800 -9.433800 -27.161900 -11.966212 -3.688266 -4.077605 26.995956 -14.677735 -9.881601 -6.296212 -13.455602 44.373203 -2.502332 4.806831 14.583219 -3.982800 -12.137500 36.220100 0.642795 0.521487 4.949266 1.079760 0.530172 -2.350481 2.182947 0.671658 -0.999636 1.907765 -19.015293 4.729336 2.713312 -24.364017 6.194328 1.807000 -11.615300 -5.939400 -1.283109 -2.099856 3.265708 -52.783039 -5.900776 54.856591 138.559082 -41.106660 -98.932763 1.239200 3.033109 -7.608192 25.696158 -26.307083 -12.604600 -7.125000 0.000000 0.000000 -3.948700 -2.172100 4.105200 3.277182 4.388069 4.526142 69.454283 19.202187 76.286741 -134.991262 40.530309 -93.191825 1.843893 -3.757241 17.830937 -23.545782 2.169539 -2.675800 7.125000 0.000000 0.000000 0.130100 -23.977500 0.066000 
